<svg xmlns="http://www.w3.org/2000/svg" version="1.1" xmlns:xlink="http://www.w3.org/1999/xlink" xmlns:svgjs="http://svgjs.dev/svgjs" width="1440" height="560" preserveAspectRatio="none" viewBox="0 0 1440 560"><g mask="url(&quot;#SvgjsMask1659&quot;)" fill="none"><rect width="1440" height="560" x="0" y="0" fill="rgba(0, 0, 0, 1)"></rect><path d="M -77.66566395710072,172 C 18.33,212 210.33,361.8 402.3343360428993,372 C 594.33,382.2 690.33,216 882.3343360428993,223 C 1074.33,230 1170.33,404.8 1362.3343360428994,407 C 1554.33,409.2 1826.8,255.2 1842.3343360428994,234 C 1857.87,212.8 1520.47,287.6 1440,301" stroke="rgba(110, 170, 238, 0.65)" stroke-width="2"></path><path d="M -564.5316776200469,321 C -468.53,309.4 -276.53,258 -84.5316776200469,263 C 107.47,268 203.47,353.4 395.46832237995307,346 C 587.47,338.6 683.47,238.4 875.4683223799531,226 C 1067.47,213.6 1242.56,282.2 1355.4683223799532,284 C 1468.37,285.8 1423.09,244.8 1440,235" stroke="rgba(110, 170, 238, 0.65)" stroke-width="2"></path></g><defs><mask id="SvgjsMask1659"><rect width="1440" height="560" fill="#ffffff"></rect></mask></defs></svg>