<svg xmlns="http://www.w3.org/2000/svg" version="1.1" xmlns:xlink="http://www.w3.org/1999/xlink" xmlns:svgjs="http://svgjs.dev/svgjs" width="1440" height="560" preserveAspectRatio="none" viewBox="0 0 1440 560"><g mask="url(&quot;#SvgjsMask1449&quot;)" fill="none"><rect width="1440" height="560" x="0" y="0" fill="rgba(255, 255, 255, 1)"></rect><path d="M -895.0891206323737,348 C -799.09,306.6 -607.09,126.6 -415.0891206323737,141 C -223.09,155.4 -127.09,422.6 64.91087936762631,420 C 256.91,417.4 352.91,154.6 544.9108793676263,128 C 736.91,101.4 845.89,274 1024.9108793676264,287 C 1203.93,300 1356.98,211.8 1440,193" stroke="rgba(110, 170, 238, 0.65)" stroke-width="2"></path><path d="M -493.89823669386055,135 C -397.9,185.2 -205.9,390.4 -13.89823669386054,386 C 178.1,381.6 274.1,131.2 466.10176330613945,113 C 658.1,94.8 754.1,267.8 946.1017633061394,295 C 1138.1,322.2 1327.32,251.6 1426.1017633061394,249 C 1524.88,246.4 1437.22,275.4 1440,282" stroke="rgba(110, 170, 238, 0.65)" stroke-width="2"></path><path d="M -489.9977766115761,241 C -394,273.4 -202,424.2 -9.997776611576139,403 C 182,381.8 278,148.2 470.0022233884239,135 C 662,121.8 758,322 950.0022233884239,337 C 1142,352 1332,212.8 1430.0022233884238,210 C 1528,207.2 1438,300.4 1440,323" stroke="rgba(110, 170, 238, 0.65)" stroke-width="2"></path></g><defs><mask id="SvgjsMask1449"><rect width="1440" height="560" fill="#ffffff"></rect></mask></defs></svg>