<svg xmlns="http://www.w3.org/2000/svg" version="1.1" xmlns:xlink="http://www.w3.org/1999/xlink" xmlns:svgjs="http://svgjs.dev/svgjs" width="1440" height="560" preserveAspectRatio="none" viewBox="0 0 1440 560"><g mask="url(&quot;#SvgjsMask1022&quot;)" fill="none"><rect width="1440" height="560" x="0" y="0" fill="rgba(255, 255, 255, 1)"></rect><path d="M -317.4996799521528,250 C -221.5,297.2 -29.5,493.2 162.5003200478472,486 C 354.5,478.8 450.5,253.4 642.5003200478473,214 C 834.5,174.6 930.5,278 1122.5003200478473,289 C 1314.5,300 1539,234 1602.5003200478473,269 C 1666,304 1472.5,425 1440,464" stroke="rgba(110, 170, 238, 0.65)" stroke-width="2"></path><path d="M -155.57049956947856,362 C -59.57,331.2 132.43,180.2 324.42950043052144,208 C 516.43,235.8 612.43,521.4 804.4295004305214,501 C 996.43,480.6 1092.43,114 1284.4295004305213,106 C 1476.43,98 1733.32,462.4 1764.4295004305213,461 C 1795.54,459.6 1504.89,171.4 1440,99" stroke="rgba(110, 170, 238, 0.65)" stroke-width="2"></path><path d="M -522.0795171218388,398 C -426.08,358.4 -234.08,199.4 -42.07951712183881,200 C 149.92,200.6 245.92,413.8 437.9204828781612,401 C 629.92,388.2 725.92,159.6 917.9204828781612,136 C 1109.92,112.4 1293.5,262.2 1397.9204828781612,283 C 1502.34,303.8 1431.58,248.6 1440,240" stroke="rgba(110, 170, 238, 0.65)" stroke-width="2"></path><path d="M -154.87463148856034,439 C -58.87,403.2 133.13,253.8 325.12536851143966,260 C 517.13,266.2 613.13,494.4 805.1253685114397,470 C 997.13,445.6 1093.13,141.4 1285.1253685114398,138 C 1477.13,134.6 1734.15,457.4 1765.1253685114398,453 C 1796.1,448.6 1505.03,183.4 1440,116" stroke="rgba(110, 170, 238, 0.65)" stroke-width="2"></path></g><defs><mask id="SvgjsMask1022"><rect width="1440" height="560" fill="#ffffff"></rect></mask></defs></svg>